<svg xmlns="http://www.w3.org/2000/svg" viewBox="0 0 1024 1024"><defs><style>.cls-1{fill:#0092ff;}.cls-2{fill:#f9cc45;}</style></defs><g id="图层_2" data-name="图层 2"><g id="成稿"><path class="cls-1" d="M629,443.61,841.89,230.67l155.16,465L677.76,589.05l-.25.24-.24-.24Z"/><path class="cls-2" d="M328.36,27l465,155.16L580.39,395.05,435,346.73l-.24-.24Z"/><path class="cls-1" d="M1024,777,829.75,971.23h0a105.93,105.93,0,0,1-109,25.16,755,755,0,0,0-435.8-14.48,739.81,739.81,0,0,0-100.38,34.26A97.86,97.86,0,0,1,77.05,995.51h0L236.43,836.14c10.81-10.82,25.37-16,40.54-17.91a68.81,68.81,0,0,0,40.22-116.76,66.06,66.06,0,0,0-26.95-16.27A68.3,68.3,0,0,0,200,750.77c.23,17-8.34,33-20.39,45.08L28.49,947h0A97.86,97.86,0,0,1,7.83,839.48,739.81,739.81,0,0,0,42.09,739.1,755,755,0,0,0,27.61,303.3a105.93,105.93,0,0,1,25.16-109h0L247,0,441.26,582.74Z"/></g></g></svg>