<?xml version="1.0" encoding="UTF-8"?>
<svg width="110px" height="110px" viewBox="0 0 110 110" version="1.1" xmlns="http://www.w3.org/2000/svg" xmlns:xlink="http://www.w3.org/1999/xlink">
    <title>矩形</title>
    <defs>
        <radialGradient cx="4.67923368%" cy="21.4058818%" fx="4.67923368%" fy="21.4058818%" r="117.918628%" gradientTransform="translate(0.046792,0.214059),scale(1.000000,0.759624),rotate(36.063940),translate(-0.046792,-0.214059)" id="radialGradient-1">
            <stop stop-color="#9CFF86" offset="0%"></stop>
            <stop stop-color="#38FFEB" offset="26.5440298%"></stop>
            <stop stop-color="#3B81FF" offset="69.6725274%"></stop>
            <stop stop-color="#7F28FF" offset="100%"></stop>
        </radialGradient>
    </defs>
    <g id="页面-1" stroke="none" stroke-width="1" fill="none" fill-rule="evenodd">
        <g id="画板备份" transform="translate(-914.000000, -104.000000)">
            <g id="编组备份-6" transform="translate(930.000000, 106.000000)"></g>
            <g id="编组" transform="translate(914.000000, 104.000000)" fill="url(#radialGradient-1)">
                <path d="M76.668,65.501 L76.667,89.674 L74.5970434,90.7686738 C73.8939469,91.1402521 73.2717316,91.6478935 72.766573,92.2620839 L59.6896803,108.161451 C59.338856,108.587997 58.7086735,108.64938 58.2821284,108.298556 C58.0511762,108.108603 57.917352,107.825262 57.917352,107.526228 L57.9176164,76.2379388 C58.1056829,76.1624469 58.2910718,76.0778044 58.4731314,75.9840072 L58.7436423,75.8364447 L76.668,65.501 Z M34.846,65.506 L52.1792769,75.7948352 L52.4239506,75.933028 C52.6135295,76.0347763 52.8069385,76.1264789 53.003423,76.208131 L53.003423,95.0371093 C53.003423,95.5893941 52.55554,96.0371093 52.0032553,96.0371093 C51.8239088,96.0371093 51.6478628,95.9888768 51.493561,95.8974649 L34.847,86.035 L34.846,65.506 Z M95.919,54.402 L95.9199152,78.2946397 C95.9199152,79.0359775 95.5098504,79.7165004 94.8544149,80.0628904 L79.667,88.088 L79.667,63.772 L95.919,54.402 Z M15,53.726 L31.847,63.726 L31.847,84.258 L15.9813035,74.8591921 C15.3734515,74.4990866 15.0006921,73.8449934 15.0006921,73.1384809 L15,53.726 Z M76.668,40.371 L76.668,62.039 L57.917,72.85 L57.917352,52.3584526 C57.917352,51.6440934 58.2983679,50.9839711 58.916935,50.6266426 L76.668,40.371 Z M34.846,41.008 L52.0226439,51.183732 C52.6304959,51.5438374 53.0032553,52.1979306 53.0032553,52.9044431 L53.003,72.795 L34.846,62.017 L34.846,41.008 Z M95.7858202,30.4834057 C95.8736659,30.6354744 95.9199152,30.8079959 95.9199152,30.9836142 L95.919,50.939 L79.667,60.309 L79.667,38.639 L94.4197067,30.1177092 C94.8979328,29.8414516 95.5095627,30.0051795 95.7858202,30.4834057 Z M16.0006921,30.0058147 C16.1800386,30.0058147 16.3560846,30.0540472 16.5103864,30.1454591 L31.847,39.231 L31.847,60.237 L15,50.237 L15.0006921,31.0058147 C15.0006921,30.45353 15.4484074,30.0058147 16.0006921,30.0058147 Z M57.462,26.664 L74.08,36.411 L56.5482989,46.5700465 C55.9281112,46.9294167 55.1630286,46.9294167 54.5428409,46.5700465 L38.939,37.528 L57.462,26.664 Z M35.016,13.498 L54.497,24.925 L35.957,35.8 L17.6701064,25.2039957 C17.1922496,24.9270998 17.0293387,24.3152518 17.3062347,23.8373951 C17.394267,23.6854722 17.520749,23.5594064 17.6729612,23.4718754 L35.016,13.498 Z M78.01,14.611 L93.4181785,23.4718754 C93.8969454,23.7471947 94.0618723,24.3585023 93.786553,24.8372692 C93.699022,24.9894814 93.5729562,25.1159634 93.4210333,25.2039957 L77.062,34.683 L60.426,24.925 L78.01,14.611 Z M56.5425891,2.26623168 L75.016,12.889 L57.462,23.186 L38.01,11.776 L54.5485506,2.26623168 C55.165836,1.91125611 55.9253038,1.91125611 56.5425891,2.26623168 Z" id="形状"></path>
            </g>
        </g>
    </g>
</svg>