<svg id="图层_1" data-name="图层 1" xmlns="http://www.w3.org/2000/svg" viewBox="0 0 724.07 87.87"><defs><style>.cls-1,.cls-2{fill:#024997;}.cls-1{fill-opacity:0;}.cls-3{fill:#0098ad;}.cls-4{fill:#1acfe2;}</style></defs><rect class="cls-1" width="184.32" height="87.87"/><g id="f751a78d-a7ad-4b81-8f3a-bf1662e11ad6"><g id="b5803dde-de3d-472b-83c2-147b0e83e8bb"><path class="cls-2" d="M321,375.2s10.89,30.28,57.56,22.51S445.4,363.07,505.28,417c0,0-38.88-18.12-83.17,0S329.51,436.65,321,375.2Z" transform="translate(-320.96 -340.06)"/><path class="cls-3" d="M339.91,357.93s7.36,18.05,38.94,13.45,45.26-20.66,85.78,11.47c0,0-26.31-10.76-56.31,0S345.69,394.56,339.91,357.93Z" transform="translate(-320.96 -340.06)"/><path class="cls-4" d="M353.9,340.07s3.39,35.13,41.89,21.39C395.79,361.46,364.49,358.34,353.9,340.07Z" transform="translate(-320.96 -340.06)"/></g></g><path class="cls-2" d="M557.1,368.72c.55.39.83.78.83,1.16h0a.72.72,0,0,1-.46.65,2.4,2.4,0,0,1-1.26.28h0a6.48,6.48,0,0,1-3.1-.71,12.15,12.15,0,0,1-2.8-2.37h0a4,4,0,0,1-1.11-2.67h0a3.71,3.71,0,0,1,1.26-2.76h0a3,3,0,0,1,1.94-.68h0a1.72,1.72,0,0,1,1.78,1.2h0c.1.39.25.94.43,1.66a8.09,8.09,0,0,0,.77,2.06,9.81,9.81,0,0,0,1.72,2.18Zm32.32-5.32a3,3,0,0,1,3.41,3.66h0a14.05,14.05,0,0,1-.22,2.24h0a148.29,148.29,0,0,0-1.1,20h0q0,5.07.27,12.23h0a4.58,4.58,0,0,1,.09,1h0a3.28,3.28,0,0,1-1,2.58,7.32,7.32,0,0,1-3.41,1.44h0a5.49,5.49,0,0,1-1.1.16h0c-1.54,0-2.31-1.07-2.31-3.2h0a7.63,7.63,0,0,1,.06-1.13h0l.09-32.66q-1.29-.09-4-.09h0q-10.76,0-16.19,1.93h0a3.5,3.5,0,0,1-1.5.31h0a2.58,2.58,0,0,1-1.85-.7,2.24,2.24,0,0,1-.76-1.69h0a2.12,2.12,0,0,1,.52-1.48h0a8.49,8.49,0,0,1,3.1-2.7,9.6,9.6,0,0,1,3.84-.68h0c.76.66,2.53,1,5.32,1h11.92a2.2,2.2,0,0,1,1.19-1.53,7.88,7.88,0,0,1,2-.49c.78-.08,1.32-.16,1.63-.22Zm-43.13,4.27a5.68,5.68,0,0,1,2.24.77,1.89,1.89,0,0,1,.8,1.26,14.31,14.31,0,0,1,.15,2.43h0a65.75,65.75,0,0,1-1.72,15.3,34.27,34.27,0,0,1-5,11.95q-3.28,4.69-7.61,5.28h0l-.68.09a9.18,9.18,0,0,1-3.9-1,9.84,9.84,0,0,1-3.1-2.06h0c-.56-.66-.78-1.16-.68-1.51h0a1.13,1.13,0,0,1,.46-.61,3.06,3.06,0,0,1,.89-.34h0a27.43,27.43,0,0,0,8.08-3.62,12.17,12.17,0,0,0,4.3-5.81A30.52,30.52,0,0,0,542,379.44h0q0-2.9-.21-6.33h0q0-5.6,3.41-5.59h0a6.23,6.23,0,0,1,1.14.15Zm32.22,10.51q2.31-.06,2.31,2.46h0a11.4,11.4,0,0,1-.59,3.07h0c-.45,1.39-.67,4.18-.67,8.35h0a2.8,2.8,0,0,1-.93,2.28,4.89,4.89,0,0,1-2.79.61h0a35.16,35.16,0,0,1-4.27-.37h0a38.39,38.39,0,0,0-8.05-.58h0a29.39,29.39,0,0,0-6.36.43h0a1.53,1.53,0,0,1-.58.09h0a1.51,1.51,0,0,1-1.6-1.17,12.85,12.85,0,0,1-.34-3.47h0a20.61,20.61,0,0,0-.46-3.65h0c-.18-1.15-.31-1.92-.37-2.31h0a6.81,6.81,0,0,1-.06-1h0a4.22,4.22,0,0,1,1.48-3.5,6.51,6.51,0,0,1,4.17-1.2h0l1.14.06a45,45,0,0,0,7.16.4h0a104.38,104.38,0,0,0,10.81-.46Zm-5.9,10.44c.06-.2.2-.66.4-1.38a6.72,6.72,0,0,0,.34-2.06h0c0-1.43-.77-2.18-2.3-2.24h0a29,29,0,0,0-4.76-.37h0A13.64,13.64,0,0,0,562,383h0c-.95.29-1.42,1.18-1.42,2.67h0a8.7,8.7,0,0,0,.46,2.77h0c.25.7,1.61,1,4.09,1h0l2.61-.06a23,23,0,0,1,2.33-.09h.53c1.12,0,1.79-.25,2-.74Zm95.94.74c.8.16,1.2.49,1.2,1h0l-.15.59c-1.44,2.64-3.47,4-6.12,4h0a9.91,9.91,0,0,1-2.92-.46h0a15.86,15.86,0,0,1-4-2q-2-1.35-4.73-3.5h0q-2.46-1.87-4.09-3a18.9,18.9,0,0,0-3.22-1.81h0a25,25,0,0,1-3.41-1.6,13.08,13.08,0,0,0-1.35-.77h0a1,1,0,0,1-.52-.67h-8.58a27.81,27.81,0,0,1-2.18,2.36h0a19.59,19.59,0,0,0,3.32.31q2.12.09,3.69,0h0l6-.37a4.21,4.21,0,0,1,3.29,1.17,7.84,7.84,0,0,1,1.62,3.38h0a7.31,7.31,0,0,1,.31,2.24h0a7.6,7.6,0,0,1-1.6,4.76,8.54,8.54,0,0,1-3.47,2.86h0a8.14,8.14,0,0,1-3,.52h0a7.2,7.2,0,0,1-5.31-2.09h0a1.28,1.28,0,0,1-.43-.83h0a.82.82,0,0,1,.49-.73,2.47,2.47,0,0,1,1.38-.31h0l.65.06a2.76,2.76,0,0,0,.77.09h0a5.26,5.26,0,0,0,3.37-1.14,3.11,3.11,0,0,0,1.48-2.51h0a2.84,2.84,0,0,0-.83-1.79h0a3.88,3.88,0,0,0-1.84-1,9.25,9.25,0,0,0-3-.43h0c-1,.06-2.19.15-3.44.28a16.74,16.74,0,0,0-2.68.4h0A2.5,2.5,0,0,0,628,390.5a39.37,39.37,0,0,0-.21,4.7h0c0,1.84,1,3.32,3,4.42a16,16,0,0,0,7.77,1.69h0a28.44,28.44,0,0,0,7-.92,31.75,31.75,0,0,0,7.07-2.83h0a1.75,1.75,0,0,1,.74-.21h0a1,1,0,0,1,.83.49,2.54,2.54,0,0,1,.27,1.23h0a3.22,3.22,0,0,1-.37,1.63h0a9.48,9.48,0,0,1-4.51,4.45,21.2,21.2,0,0,1-6.15,1.69h0a36.82,36.82,0,0,1-4.27.22h0A29.17,29.17,0,0,1,628,405a8.31,8.31,0,0,1-5.59-6.85h0a22.17,22.17,0,0,1-.46-5.23h0c0-.59.05-1.79.15-3.59h0a38.74,38.74,0,0,1-7.22,4.49,15.32,15.32,0,0,1-6.36,1.62h0a7.89,7.89,0,0,1-3.65-1.07,8.85,8.85,0,0,1-2.83-2.18h0a2.43,2.43,0,0,1-.52-1.29h0c0-.45.42-.75,1.26-.89h0a49.52,49.52,0,0,0,10.75-3.38,36.26,36.26,0,0,0,8.88-5.56h0c-6,.1-9.56.35-10.81.73h0a2.64,2.64,0,0,1-1.05.22h0a2,2,0,0,1-1.35-.46,1.55,1.55,0,0,1-.52-1.17h0a1.35,1.35,0,0,1,.46-1h0a7.34,7.34,0,0,1,2.24-1.72,6.46,6.46,0,0,1,2.61-.46h0c.43.41,1.62.61,3.57.61h8.14a33.59,33.59,0,0,0,2.09-3h0q-10.66.15-12.38.74h0a2.38,2.38,0,0,1-1,.21h0a1.56,1.56,0,0,1-1.16-.49,1.47,1.47,0,0,1-.47-1.07h0a1.72,1.72,0,0,1,.37-.9h0a6.71,6.71,0,0,1,2-1.59,5.8,5.8,0,0,1,2.33-.4h0c.46.39,1.55.58,3.29.58h8.42a18.82,18.82,0,0,0,1.41-6.27h0a7.1,7.1,0,0,1,.86-2.82,2.48,2.48,0,0,1,2.37-1.29h0a4.75,4.75,0,0,1,1.32.24h0a5.4,5.4,0,0,1,2.12,1.11,1.92,1.92,0,0,1,.58,1.35h0a20.52,20.52,0,0,1-1.66,7.68h0l16.5-.06a5.88,5.88,0,0,1,2.12.25c.37.18.48.59.34,1.22h0a2.13,2.13,0,0,1-.74,1.51,5.47,5.47,0,0,1-1.72.43h0q-5.16-.21-17.82-.37h0L633,377.81h0l22.76-.09a5.16,5.16,0,0,1,2.31.34c.41.22.53.68.37,1.38h0a2.37,2.37,0,0,1-.8,1.66,4.23,4.23,0,0,1-1.88.43h0c-.69,0-3.28-.12-7.77-.22h0q4.8,2.46,10.42,4.76a58.61,58.61,0,0,0,10.1,3.29Zm-51.76-19.6a3.86,3.86,0,0,1-2.24-3.44h0a3.7,3.7,0,0,1,.46-1.72h0a2.63,2.63,0,0,1,1-1.07,2.55,2.55,0,0,1,1.41-.5h0a1.44,1.44,0,0,1,1.26.68h0c.21.29.5.75.86,1.38a6.56,6.56,0,0,0,1.42,1.66,9,9,0,0,0,2.42,1.44h0a2.56,2.56,0,0,1,.86.56,1,1,0,0,1,.34.7h0c0,.7-.57,1.15-1.72,1.36h0A9.19,9.19,0,0,1,621,371h0a8.6,8.6,0,0,1-4.18-1.26Zm27,.89c-.39-.16-.58-.39-.58-.67h0c0-.45.3-.85.89-1.2h0a7.53,7.53,0,0,0,2.24-1.54,10.79,10.79,0,0,0,1.48-2.06h0a8.51,8.51,0,0,1,1.32-1.62,2.33,2.33,0,0,1,1.66-.53h0a3.87,3.87,0,0,1,2.51.71,2.4,2.4,0,0,1,.87,2h0a4.32,4.32,0,0,1-2.4,3.93A10.59,10.59,0,0,1,646.4,371h0a9.1,9.1,0,0,1-2.61-.37Zm45.59.59c-2-1.05-3-2.49-3-4.34h0a6,6,0,0,1,.37-1.84h0a3.3,3.3,0,0,1,1.29-1.35,3.38,3.38,0,0,1,1.84-.61h0a1.66,1.66,0,0,1,1.35.61h0a15.23,15.23,0,0,0,2.92,2.92,19.22,19.22,0,0,0,4.46,2.21h0a2,2,0,0,1,1.1.46,1,1,0,0,1,.46.74h0c0,.69-.69,1.3-2.09,1.81h0a9.66,9.66,0,0,1-3,.43h0a17.13,17.13,0,0,1-5.74-1Zm49.31-7.32a3,3,0,0,1,2.08.65,2.69,2.69,0,0,1,.74,2.18h0c0,.31,0,.86-.12,1.66h0q-.24,1.63-.25,20.21h0q0,11,.16,13.37h0a3.31,3.31,0,0,1-.71,2.42,4,4,0,0,1-2.12,1.29h0a7.59,7.59,0,0,1-1.66.22h0a2.31,2.31,0,0,1-2.09-.95,4.08,4.08,0,0,1-.52-2.31h0q0-2,.15-8.75h0c.07-1.05.12-2.58.16-4.61s.09-3.82.09-5.32h0L722,383.92c-5.26,0-8.86.11-10.81.31h0a72.49,72.49,0,0,1-2.55,14.29q-1.7,5.55-4.08,6.51h0a6.73,6.73,0,0,1-2.62.52h0a7.68,7.68,0,0,1-2.58-.43,11.25,11.25,0,0,1-2.05-1h0a1.46,1.46,0,0,1-.74-1.2h0a1.07,1.07,0,0,1,.74-1.05h0q8.28-3.56,8.29-25.59h0q0-3.49-.31-9.3h0a6.29,6.29,0,0,1,.37-2.43,1.67,1.67,0,0,1,1.66-1.23h0a3.65,3.65,0,0,1,1.11.22h0q1.13.51,12.53.52h0l12.84-.06c1.43-.06,3.07-.1,4.92-.1Zm-16.35,3.88q-10.5,0-10.5,1.44h0c0,1.88,0,3.3-.1,4.24h0a7.2,7.2,0,0,1,2-1.41,5.38,5.38,0,0,1,2.09-.37h0a6.28,6.28,0,0,0,3.29.58h1.41v-1.35a5.77,5.77,0,0,1,.65-2.12,2.23,2.23,0,0,1,1.13-1ZM734.45,373q-.37-4.77-1.2-4.86h0q-1.41-.15-7.62-.3h0a2.26,2.26,0,0,1,1.17.86,3.56,3.56,0,0,1,.4,1.84h0a14.16,14.16,0,0,1-.16,1.63h0v.15h5c1.43,0,2.25.23,2.46.68Zm-7.84,2.67c-.1,1-.2,2.65-.3,4.94h8.29q0-4.85-.15-6.78h0v.06a2.42,2.42,0,0,1-.77,1.5,3,3,0,0,1-1.69.37h0ZM701.3,389.51a1.3,1.3,0,0,1,.77-.3h0a1.13,1.13,0,0,1,1,.64,2.82,2.82,0,0,1,.37,1.45h0a2.35,2.35,0,0,1-.74,1.81h0l-3.53,3.13a46.92,46.92,0,0,1-7.31,5.81h0a4.4,4.4,0,0,1-2.61,1h0a4.22,4.22,0,0,1-3.2-1.81h0a5,5,0,0,1-1.1-2.67h0q0-1.79,2.73-2.55h0a9.23,9.23,0,0,0,1.72-.53h0l.09-15a39.36,39.36,0,0,0-9,1.2h0a3.5,3.5,0,0,1-1.5.31h0a2.59,2.59,0,0,1-1.85-.71,2.21,2.21,0,0,1-.76-1.69h0a2.12,2.12,0,0,1,.52-1.47h0q3.08-4.06,5.31-4.06h0a2.36,2.36,0,0,1,1.63.68h0q1.14,1,5.32,1h1.62a3.94,3.94,0,0,1,1.23-.49,8.61,8.61,0,0,1,1.38-.22,4.26,4.26,0,0,0,.9-.12h0a3.37,3.37,0,0,1,2.3.71,3.28,3.28,0,0,1,.83,2.58h0a12.27,12.27,0,0,1-.22,2.09h0a61.1,61.1,0,0,0-.89,9.18h0c0,1.5,0,2.67.06,3.5h0a14.64,14.64,0,0,0,3.48-2.11c.71-.68,1.19-1.12,1.44-1.33ZM712.73,380c.49.41,1.58.61,3.28.61h4.55v-5q-5.22.15-6.79.37h0a2.33,2.33,0,0,1-1,.21h0a1.87,1.87,0,0,1-1.11-.37h0c0,1.05,0,2.47-.15,4.27h0a5.62,5.62,0,0,1,1.2-.09Zm18.06,7.56q1.26-.09,1.26,1.47h0a6.15,6.15,0,0,1-.31,1.94h0a29,29,0,0,0-.21,3.65c0,1.95-.06,3.52-.06,4.7h0a2.07,2.07,0,0,1-.62,1.48,2.73,2.73,0,0,1-1.63.4h0a14.43,14.43,0,0,1-2.33-.22h0c-.49-.1-1.48-.2-2.95-.31s-2.91-.15-4.36-.15h0a19.42,19.42,0,0,0-4.7.31h0c-.6.2-1,0-1.11-.46a9.51,9.51,0,0,1-.21-2.37h0l-.1-6.79a3.14,3.14,0,0,1,.8-2.85,3.84,3.84,0,0,1,3-.74h0c2.48.1,4.42.15,5.81.15h0q4,0,7.77-.21ZM724.43,397a1.73,1.73,0,0,0,1.48-1,4.6,4.6,0,0,0,.46-2.09h0a4.26,4.26,0,0,0-.37-1.78,1.58,1.58,0,0,0-1-1h0a14.73,14.73,0,0,0-2.86-.3h0a6,6,0,0,0-2.46.37h0c-.63.3-1,1.55-1,3.74h0q0,.68,0,.93t0,.33h0c0,.7.66,1.05,2.09,1.05h0c.41,0,1,0,1.72-.09l1.78-.22Zm94.47-18.4c.94.14,1.41.49,1.41,1h0a2.19,2.19,0,0,1-.15.65h0q-2.25,4.95-7.1,4.94h0a9.64,9.64,0,0,1-2.46-.3h0a18.08,18.08,0,0,1-4.88-2.09c-1.66-1-3.71-2.38-6.15-4.12h0c-.3-.18-1-.66-2.09-1.44s-2.09-1.41-3-1.91-1.63-.89-2.27-1.19h0l-2.82-.9a49.4,49.4,0,0,0-.16,6.36h0a3.16,3.16,0,0,1,.06.74h0a3,3,0,0,1-.06.68h0q9.68-.17,12.07-.46h0c1.4,0,2.09.7,2.09,2.24h0a12.18,12.18,0,0,1-.52,2.76h0a47.84,47.84,0,0,0-.52,7.47h0q-.06.74-.06,1.44a9.13,9.13,0,0,1-.09,1.32h0a2.76,2.76,0,0,1-.86,2.12,4,4,0,0,1-2.49.62h0a28.43,28.43,0,0,1-3.87-.37h0a29.33,29.33,0,0,0-4.89-.43q-3.84-.15-8.26-.15h0q-8,0-9.46.43h0c-1,.2-1.64-.06-1.91-.77a10.81,10.81,0,0,1-.4-3.41h0c0-4.26,0-7-.09-8.05h0a5.46,5.46,0,0,1-.06-.95h0a3.94,3.94,0,0,1,1.32-3.2,5.7,5.7,0,0,1,3.66-1.07h0a5.13,5.13,0,0,1,1.13.09h0q1.93.12,6.18.27h0v-7.21q-7.59,5.22-13.37,8.78a51.56,51.56,0,0,1-8.94,4.7h0a7.68,7.68,0,0,1-2.15.37h0a7.36,7.36,0,0,1-4-1.17,7,7,0,0,1-2.7-3h0a2.67,2.67,0,0,1-.22-.89h0a.85.85,0,0,1,.37-.71,5.29,5.29,0,0,1,1.41-.49h0a83.89,83.89,0,0,0,13.43-4.24,54.55,54.55,0,0,0,12-6.42h0c-6.47.11-10.5.43-12.08,1h0a3.49,3.49,0,0,1-1.13.21h0a2,2,0,0,1-1.45-.55,1.74,1.74,0,0,1-.55-1.23h0a1.75,1.75,0,0,1,.37-1.14h0a6.81,6.81,0,0,1,2.37-2.05,7.73,7.73,0,0,1,2.91-.47h0c.66.5,2,.74,4,.74h0l9.92-.06v-2a6.44,6.44,0,0,1,.67-2.64,2.23,2.23,0,0,1,1.42-1.07,11.75,11.75,0,0,1,2.67-.22h0a3.54,3.54,0,0,1,2.34.71,3.36,3.36,0,0,1,.79,2.58h0a13.65,13.65,0,0,1-.21,2.09h0a2.18,2.18,0,0,1-.06.52h0l14.1-.09a5.57,5.57,0,0,1,2.49.37c.43.24.61.8.55,1.66h0a2.61,2.61,0,0,1-1,1.62,6.35,6.35,0,0,1-2,.62h0l-9.19-.4q5.29,2.4,12,4.7a59.85,59.85,0,0,0,12,3Zm-22.83,8.63c-.1-1.58-.83-2.36-2.18-2.36h0a66,66,0,0,0-6.7-.25h0c-2,0-3.87,0-5.65.12a25,25,0,0,0-3.07.25h0a3,3,0,0,0-1.35,2.33h0Zm-1.14,5.53.46-1.41q-8-.47-16.18-.46h-2.4a5.54,5.54,0,0,0,.15,1.72h0c0,.49.59.85,1.88,1.07a29.33,29.33,0,0,0,5,.34h0q4,0,9.19-.52h0a5.37,5.37,0,0,0,1.35-.22.89.89,0,0,0,.58-.52ZM807,401.37a5.72,5.72,0,0,1,2.49.37c.43.27.61.82.55,1.66h0a2.67,2.67,0,0,1-1,1.63,6.39,6.39,0,0,1-2,.61h0q-2.34-.15-10.11-.37t-15-.24h0q-14.83,0-17.45,1h0a3,3,0,0,1-1.11.22h0a2,2,0,0,1-1.47-.56,1.7,1.7,0,0,1-.55-1.23h0a1.76,1.76,0,0,1,.36-1.13h0a6.41,6.41,0,0,1,2.4-2,7.25,7.25,0,0,1,2.92-.49h0c.63.49,1.94.74,3.93.74h0Zm45.49-21.16c-.49-.31-.73-.64-.73-1h0a.74.74,0,0,1,.58-.73h0c.35-.17,1.34-.6,3-1.29a6.12,6.12,0,0,0,3.47-3.72,21.68,21.68,0,0,0,1-7.47h0a4.88,4.88,0,0,1,.55-2.27,2,2,0,0,1,1.9-1.08h0a3.18,3.18,0,0,1,2.34.83h0c.43.43,1.74.65,3.93.65h0l2.76.09a7.63,7.63,0,0,0,3.6-.74h0a2.38,2.38,0,0,1,1.2-.3h0a1.83,1.83,0,0,1,1.47.7,2.32,2.32,0,0,1,.52,1.82h0l-.21,2.18c-.21,2-.31,3.13-.31,3.44h0l.09,1.1a2.24,2.24,0,0,0,1.57,1.88A9.11,9.11,0,0,0,883,375h0a22.24,22.24,0,0,0,7.1-1.29h0a4.22,4.22,0,0,1,.89-.15h0c.9,0,1.35.35,1.35,1h0a4.07,4.07,0,0,1-.74,1.88h0a8.44,8.44,0,0,1-3.81,3,13.23,13.23,0,0,1-5.16,1h0a13.29,13.29,0,0,1-6.82-1.75,6.47,6.47,0,0,1-3.47-4.58h0a12.15,12.15,0,0,1-.15-2.24h0c0-.49,0-1.93.15-4.33h0a40.66,40.66,0,0,0-4.24-.21h0a22.44,22.44,0,0,0-3,.15h0a25.14,25.14,0,0,1-1.44,8.26q-1.17,2.87-2.37,3.63a13.34,13.34,0,0,1-3.13,1.44h0a6.3,6.3,0,0,1-2.09.31h0a7.18,7.18,0,0,1-3.6-1Zm-14.25-8.67a6.16,6.16,0,0,1-2.43-1.93,4.65,4.65,0,0,1-.86-2.77h0a6.32,6.32,0,0,1,.4-2h0a4.2,4.2,0,0,1,1.35-1.45,3.61,3.61,0,0,1,2.06-.71h0a2.09,2.09,0,0,1,1.51.68h0a19.79,19.79,0,0,0,3.32,3.2,19,19,0,0,0,4.82,2.39h0a2.94,2.94,0,0,1,1.29.55,1.18,1.18,0,0,1,.49.93h0a1.41,1.41,0,0,1-.61,1,4.92,4.92,0,0,1-1.69.89h0a11.3,11.3,0,0,1-3.29.52h0a17.39,17.39,0,0,1-6.36-1.26Zm14,17.61a1.58,1.58,0,0,1,.83-.37h0a1.3,1.3,0,0,1,1.1.67,2.72,2.72,0,0,1,.47,1.57h0a2.14,2.14,0,0,1-.62,1.57h0q-4,4-6.79,6.6a58,58,0,0,1-4.91,4.12h0a4.21,4.21,0,0,1-2.77,1.29h0a4.45,4.45,0,0,1-3.07-1.57h0a4.58,4.58,0,0,1-1.32-2.76h0q0-1.57,2.52-2.55h0l1.66-.68.06-16.56q-7,.25-9.77,1.2h0a3.52,3.52,0,0,1-1.51.31h0a2.57,2.57,0,0,1-1.84-.71,2.22,2.22,0,0,1-.77-1.69h0a2.16,2.16,0,0,1,.52-1.47h0q3.07-4.06,5.32-4.06h0a2.37,2.37,0,0,1,1.63.68h0q1.14,1,5.31,1h2.37a3.75,3.75,0,0,1,1.23-.49,8.44,8.44,0,0,1,1.38-.22,4.19,4.19,0,0,0,.92-.12h0a3.44,3.44,0,0,1,2.3.71,3.24,3.24,0,0,1,.83,2.58h0a11.6,11.6,0,0,1-.24,2.09h0a70.47,70.47,0,0,0-.95,10.81h0l.06,2.77a21.76,21.76,0,0,0,4.64-3.2l1.41-1.5Zm41.32,8.66a1.51,1.51,0,0,1,1,.46.65.65,0,0,1,.09.86h0q-2.61,4.69-6.2,4.7h0a8.47,8.47,0,0,1-1.2-.06h0a18.65,18.65,0,0,1-5.93-2.49q-3.62-2.14-9.8-6.24h0a31,31,0,0,1-7.65,5.81,16.25,16.25,0,0,1-7.65,2.18h0a8.45,8.45,0,0,1-5.8-2.09h0a1.7,1.7,0,0,1-.62-1h0a.76.76,0,0,1,.34-.62,2.08,2.08,0,0,1,.86-.27h0q10.38-1.2,16.19-6.73h0a27.76,27.76,0,0,0-3.5-1.94h0a40.5,40.5,0,0,1-4.27-2.18h0a1.62,1.62,0,0,1-.89-1.47h0A1.05,1.05,0,0,1,859,386h0a4.51,4.51,0,0,1,2.55-1h0a2.55,2.55,0,0,1,1.72.64h0a31.72,31.72,0,0,0,6.32,4.12h0a18.29,18.29,0,0,0,2.62-5.29h0l.24-.76c-5.53,0-9.06.29-10.6.89h0a2.07,2.07,0,0,1-.89.15h0a2.14,2.14,0,0,1-1.44-.52,1.58,1.58,0,0,1-.59-1.2h0a1.38,1.38,0,0,1,.31-.89h0a7.79,7.79,0,0,1,2.24-1.94,6,6,0,0,1,2.62-.52h0c.59.55,1.81.83,3.65.83h0c1.23,0,2.19,0,2.89.06h0l3.29.09a2.05,2.05,0,0,1,1.65-.82h0a3.09,3.09,0,0,1,1.48.36h0a4.83,4.83,0,0,1,1.5,1.05,1.91,1.91,0,0,1,.43,1.26h0a6.58,6.58,0,0,1-.43,2h0a26.71,26.71,0,0,1-4.27,7.52h0a80.1,80.1,0,0,0,10.3,3.93,43.67,43.67,0,0,0,9,1.91Zm73.05-22.7h.58c.35,0,.53.13.53.4h0a6.57,6.57,0,0,1-.22,1h0q-1.26,5-5.28,5h0a8.39,8.39,0,0,1-2.92-.59h0a38.16,38.16,0,0,0-11-2.39h0c-.14,3.19-.21,6.43-.21,9.7h0q0,4.86.27,12.6h0a6.52,6.52,0,0,1,.09,1.2h0a3.61,3.61,0,0,1-1.13,2.82,7.54,7.54,0,0,1-3.66,1.57h0a8.82,8.82,0,0,1-1.2.15h0c-1.74,0-2.61-1.18-2.61-3.56h0a5.41,5.41,0,0,1,.1-1.2h0q0-14.46.06-23.44h0a64.47,64.47,0,0,0-7.84.77,44.62,44.62,0,0,0-6.33,1.41h0a3.82,3.82,0,0,1-1.5.28h0a1.84,1.84,0,0,1-1.47-.58h0a2.1,2.1,0,0,1-.77-1.51h0a2.06,2.06,0,0,1,.46-1.17h0a6.79,6.79,0,0,1,2.67-2.76,9,9,0,0,1,3.66-.61h0a4.67,4.67,0,0,0,2.7.52h0l2.15-.06q3.75-.17,6.27-.16h0V365.8a7.61,7.61,0,0,1,.83-3.1,2.52,2.52,0,0,1,1.44-1.17c.57-.15,1.73-.34,3.47-.59h0a4.15,4.15,0,0,1,2.8.86,4,4,0,0,1,1,3.17h0a18.19,18.19,0,0,1-.21,2.46h0q-.62,4.54-.74,7.15h0Zm-53.79-4.24a6.11,6.11,0,0,1-2.43-1.94,4.64,4.64,0,0,1-.86-2.76h0a6.54,6.54,0,0,1,.37-2h0a4.2,4.2,0,0,1,1.38-1.44,3.52,3.52,0,0,1,2.06-.71h0a2,2,0,0,1,1.48.67h0a21.37,21.37,0,0,0,3.31,3.2,18,18,0,0,0,4.83,2.4h0a2.85,2.85,0,0,1,1.32.55,1.31,1.31,0,0,1,.46.95h0a1.39,1.39,0,0,1-.59.95,4.59,4.59,0,0,1-1.72.89h0a11.21,11.21,0,0,1-3.28.53h0a17.16,17.16,0,0,1-6.33-1.26Zm16,18.74a1.14,1.14,0,0,1,.74-.31h0a1.17,1.17,0,0,1,1,.61,3,3,0,0,1,.36,1.48h0a2.29,2.29,0,0,1-.73,1.78h0q-8.88,7.53-12.54,9.71h0a4.58,4.58,0,0,1-2.61.95h0a4.23,4.23,0,0,1-3.22-1.78h0a5,5,0,0,1-1.11-2.67h0q0-1.58,2.46-2.46h0l.06-15.61c-4.67.15-7.93.54-9.77,1.2h0a3.58,3.58,0,0,1-1.47.31h0a2.61,2.61,0,0,1-1.88-.71,2.32,2.32,0,0,1-.74-1.69h0a2.24,2.24,0,0,1,.53-1.5h0c2-2.69,3.79-4,5.28-4h0a2.48,2.48,0,0,1,1.66.68h0q1.11,1,5.28,1h2.4a3.57,3.57,0,0,1,1.23-.49,10.74,10.74,0,0,1,1.38-.25,6.68,6.68,0,0,0,.89-.09h0a3.49,3.49,0,0,1,2.31.71,3.28,3.28,0,0,1,.82,2.58h0a13.65,13.65,0,0,1-.21,2.09h0a51.78,51.78,0,0,0-1,9.46h0c0,.76.05,2.13.15,4.12h0a35.12,35.12,0,0,0,5-2.4,20.2,20.2,0,0,0,2.61-1.84,6.56,6.56,0,0,1,1-.83Zm114.74-.46a2.75,2.75,0,0,1,1.23.52c.23.2.26.55.09,1h0q-2.21,5.16-7.06,5.16h0a10,10,0,0,1-2.55-.4h0a5.64,5.64,0,0,1-1.11-.36h0a28.59,28.59,0,0,0-.52,6h0a3.24,3.24,0,0,1-.89,2.55,4.16,4.16,0,0,1-2.77.79h0a16.36,16.36,0,0,1-3.07-.3h0a21.32,21.32,0,0,0-3.44-.16h0c-1.74,0-3.46.09-5.16.25a16.36,16.36,0,0,0-3.78.64h0a3.44,3.44,0,0,1-.83.16h0c-1,0-1.47-.7-1.47-2.09h0a7,7,0,0,1,.06-1.05h0a18.34,18.34,0,0,0-.12-3.74c-.17-2-.25-3.13-.25-3.47h0q-.53-3.66,5-3.66h0q1.32,0,5.37.15h0c.6,0,1.32.09,2.15.13s1.82.09,2.92.09h0l-2.7-1.88a50.32,50.32,0,0,0-7.83-4.85h0a34.85,34.85,0,0,1-4.86-1.84h0c-.08-.06-.22-.2-.43-.4h-3.07a21.08,21.08,0,0,1-5.56,4.76,53.16,53.16,0,0,1-7.77,3.9h0q5.22.32,7.95.31h0a25.44,25.44,0,0,0,3.54-.16h0a1.6,1.6,0,0,1,1.56.47,2.58,2.58,0,0,1,.53,1.78h0a6.11,6.11,0,0,1-.25,1.56h0a29.11,29.11,0,0,0-.52,6.06h0a3.24,3.24,0,0,1-.89,2.55,4.09,4.09,0,0,1-2.77.79h0a16.22,16.22,0,0,1-3-.3h0a21.67,21.67,0,0,0-3.44-.16h0c-1.74,0-3.47.09-5.19.25a15.83,15.83,0,0,0-3.75.64h0a3.93,3.93,0,0,1-.83.16h0c-1,0-1.5-.7-1.5-2.09h0a4.74,4.74,0,0,1,.09-1.05h0a18.34,18.34,0,0,0-.12-3.74c-.17-2-.25-3.13-.25-3.47h0l-.09-.77a19.8,19.8,0,0,1-4.76.77h0a5.92,5.92,0,0,1-4-.77,9.42,9.42,0,0,1-2.45-2.68h0a2.79,2.79,0,0,1-.53-1.19h0c0-.39.32-.67,1-.83h0a98.27,98.27,0,0,0,13.7-2.28,36.26,36.26,0,0,0,11.76-4.51h-7.46a26.85,26.85,0,0,0-6.36.83h0a5.86,5.86,0,0,1-1.48.21h0a3.15,3.15,0,0,1-1.87-.52,1.53,1.53,0,0,1-.74-1.26h0a1.6,1.6,0,0,1,.52-1.11h0a7.84,7.84,0,0,1,3.05-2,12.37,12.37,0,0,1,3.9-.53h0c.78.5,2.54.74,5.28.74h8.36a3.86,3.86,0,0,0,.15-.89h0a6.41,6.41,0,0,1,.58-2.67,2.28,2.28,0,0,1,2.25-1.26h0a4.7,4.7,0,0,1,.89.06h0a4.33,4.33,0,0,1,2.33,1.08,2,2,0,0,1,.4,1.22c0,.41,0,.69,0,.83h0a5.59,5.59,0,0,1-.24,1.63h0l5.62-.06c0-.31.24-.58.73-.83h0a7.3,7.3,0,0,0,1.82-1.63,10.13,10.13,0,0,0,1-1.93h0a19.66,19.66,0,0,0-4.61.74h0a4.29,4.29,0,0,1-.83.15h0c-1,0-1.5-.7-1.5-2.09h0a4.58,4.58,0,0,1,.09-1h0a22.79,22.79,0,0,0-.25-3.45h0l-.12-1.56q-.52-4,6-3.66h0c.7,0,2,.05,4,.16h0l3.44.15c1.39,0,3,.06,4.76.06h0a28.38,28.38,0,0,0,3.65-.15h0a1.71,1.71,0,0,1,1.57.46,2.59,2.59,0,0,1,.52,1.78h0a7,7,0,0,1-.21,1.57h0c-.15.75-.27,1.4-.37,1.93a10.61,10.61,0,0,0-.15,1.88h0a3.31,3.31,0,0,1-.9,2.58,4.15,4.15,0,0,1-2.76.76h0a18,18,0,0,1-3.07-.27h0a27.5,27.5,0,0,0-5.38-.16h0a3,3,0,0,1,.31,1.42h0a3.09,3.09,0,0,1-1.26,2.45h0a3.59,3.59,0,0,1-1,.68h11.21a10.79,10.79,0,0,1,3.38.34c.57.22.76.74.55,1.53h0c-.24.89-.6,1.41-1.07,1.57a13.43,13.43,0,0,1-2.86.28H1022q5.17,2.24,11.06,4.15a66.43,66.43,0,0,0,10.6,2.58Zm-58.43-17.08a19.86,19.86,0,0,0-.21-3.45h0l-.16-1.56c-.34-2.68,1.64-3.9,6-3.66h0c.86,0,2.24.05,4.12.16h0q3.51.21,6.85.21h0a26.39,26.39,0,0,0,3.44-.15h0a1.71,1.71,0,0,1,1.57.46,2.59,2.59,0,0,1,.52,1.78h0a7,7,0,0,1-.21,1.57h0c-.17.75-.29,1.4-.37,1.93a9.69,9.69,0,0,0-.16,1.88h0a3.31,3.31,0,0,1-.89,2.58,4.23,4.23,0,0,1-2.76.76h0a18,18,0,0,1-3.07-.27h0a22.74,22.74,0,0,0-3.44-.16h0c-1.75,0-3.47.08-5.17.22a14.34,14.34,0,0,0-3.77.68h0a3.94,3.94,0,0,1-.83.15h0c-1,0-1.48-.7-1.48-2.09h0a6.81,6.81,0,0,1,.06-1Zm6.73-5.23a1,1,0,0,0-1,.77,5.7,5.7,0,0,0-.25,1.54c0,.55-.06.9-.06,1h0c0,.8,1.18,1.2,3.53,1.2h0a27,27,0,0,0,5.59-.58h0a2,2,0,0,0,1.29-.59,3.07,3.07,0,0,0,.56-1.23h0a3.43,3.43,0,0,0,.09-.95h0c0-1.1-.45-1.66-1.35-1.66h0q-1.2-.06-6.48.31h0Zm26.33,3.35c0,.8,1.39,1.2,4.18,1.2h0a31.55,31.55,0,0,0,6.42-.58h0a2,2,0,0,0,1.29-.59,3.36,3.36,0,0,0,.58-1.23h0a5.08,5.08,0,0,0,.06-.95h0c0-1.1-.45-1.66-1.35-1.66h0a53.62,53.62,0,0,0-8.2.37h0l-1.72.09a1,1,0,0,0-1,.77,5,5,0,0,0-.28,1.54c0,.55,0,.9,0,1ZM1001.83,394a64,64,0,0,0-6.51.31h0l-1.93.12c-.5.06-.81.47-1,1.23a12.89,12.89,0,0,0-.27,2.24q0,1.11,0,1.38h0c0,.8,1.16,1.2,3.5,1.2h0a26.1,26.1,0,0,0,5.59-.58h0a2,2,0,0,0,1.32-.59,3,3,0,0,0,.55-1.22h0a8,8,0,0,0,.06-1.26h0c0-1.89-.44-2.83-1.32-2.83Zm26.91,4.09a4.68,4.68,0,0,0,.1-1.26h0c0-1.89-.45-2.83-1.36-2.83h0a63.5,63.5,0,0,0-6.48.31h0l-1.93.12q-.77.09-1,1.23a15,15,0,0,0-.24,2.24q-.06,1.11-.06,1.38h0c0,.8,1.17,1.2,3.53,1.2h0a26.37,26.37,0,0,0,5.59-.58h0a2,2,0,0,0,1.29-.59,3,3,0,0,0,.55-1.22Z" transform="translate(-320.96 -340.06)"/></svg>